<svg width="121" height="120" viewBox="0 0 121 120" fill="none" xmlns="http://www.w3.org/2000/svg">
<rect x="0.25" width="120" height="120" rx="60" fill="#FFF1F6"/>
<mask id="mask0_4987_22773" style="mask-type:alpha" maskUnits="userSpaceOnUse" x="30" y="30" width="61" height="60">
<rect x="30.25" y="30" width="60" height="60" fill="#D9D9D9"/>
</mask>
<g mask="url(#mask0_4987_22773)">
<path d="M44.875 72.75C47 71.125 49.375 69.8438 52 68.9063C54.625 67.9688 57.375 67.5 60.25 67.5C63.125 67.5 65.875 67.9688 68.5 68.9063C71.125 69.8438 73.5 71.125 75.625 72.75C77.0833 71.0417 78.2188 69.1042 79.0313 66.9375C79.8438 64.7708 80.25 62.4583 80.25 60C80.25 54.4583 78.3021 49.7396 74.4063 45.8438C70.5104 41.9479 65.7917 40 60.25 40C54.7083 40 49.9896 41.9479 46.0938 45.8438C42.1979 49.7396 40.25 54.4583 40.25 60C40.25 62.4583 40.6563 64.7708 41.4688 66.9375C42.2813 69.1042 43.4167 71.0417 44.875 72.75ZM60.25 62.5C57.7917 62.5 55.7188 61.6563 54.0313 59.9688C52.3438 58.2813 51.5 56.2083 51.5 53.75C51.5 51.2917 52.3438 49.2188 54.0313 47.5313C55.7188 45.8438 57.7917 45 60.25 45C62.7083 45 64.7813 45.8438 66.4688 47.5313C68.1563 49.2188 69 51.2917 69 53.75C69 56.2083 68.1563 58.2813 66.4688 59.9688C64.7813 61.6563 62.7083 62.5 60.25 62.5ZM60.25 85C56.7917 85 53.5417 84.3438 50.5 83.0313C47.4583 81.7188 44.8125 79.9375 42.5625 77.6875C40.3125 75.4375 38.5313 72.7917 37.2188 69.75C35.9063 66.7083 35.25 63.4583 35.25 60C35.25 56.5417 35.9063 53.2917 37.2188 50.25C38.5313 47.2083 40.3125 44.5625 42.5625 42.3125C44.8125 40.0625 47.4583 38.2813 50.5 36.9688C53.5417 35.6563 56.7917 35 60.25 35C63.7083 35 66.9583 35.6563 70 36.9688C73.0417 38.2813 75.6875 40.0625 77.9375 42.3125C80.1875 44.5625 81.9688 47.2083 83.2813 50.25C84.5938 53.2917 85.25 56.5417 85.25 60C85.25 63.4583 84.5938 66.7083 83.2813 69.75C81.9688 72.7917 80.1875 75.4375 77.9375 77.6875C75.6875 79.9375 73.0417 81.7188 70 83.0313C66.9583 84.3438 63.7083 85 60.25 85Z" fill="#FFB4D2"/>
</g>
</svg>
