<svg width="121" height="120" viewBox="0 0 121 120" fill="none" xmlns="http://www.w3.org/2000/svg">
<rect x="0.25" width="120" height="120" rx="60" fill="#FFF1F6"/>
<mask id="mask0_4987_22811" style="mask-type:alpha" maskUnits="userSpaceOnUse" x="30" y="30" width="61" height="60">
<rect x="30.25" y="30" width="60" height="60" fill="#D9D9D9"/>
</mask>
<g mask="url(#mask0_4987_22811)">
<path d="M42.75 82.5C41.375 82.5 40.1979 82.0104 39.2188 81.0312C38.2396 80.0521 37.75 78.875 37.75 77.5V42.5C37.75 41.125 38.2396 39.9479 39.2188 38.9688C40.1979 37.9896 41.375 37.5 42.75 37.5H77.75C79.125 37.5 80.3021 37.9896 81.2812 38.9688C82.2604 39.9479 82.75 41.125 82.75 42.5V77.5C82.75 78.875 82.2604 80.0521 81.2812 81.0312C80.3021 82.0104 79.125 82.5 77.75 82.5H42.75ZM45.25 72.5H75.25L65.875 60L58.375 70L52.75 62.5L45.25 72.5Z" fill="#FFB4D2"/>
</g>
</svg>
