<svg width="28" height="28" viewBox="0 0 28 28" fill="none" xmlns="http://www.w3.org/2000/svg">
<mask id="mask0_4476_12546" style="mask-type:luminance" maskUnits="userSpaceOnUse" x="0" y="0" width="28" height="28">
<path d="M14.0003 3.06881C17.5605 3.06881 17.9822 3.08215 19.3882 3.14636C20.6884 3.20567 21.3943 3.42265 21.8641 3.60538C22.4868 3.84742 22.9307 4.13597 23.3973 4.60256C23.8638 5.06915 24.153 5.51323 24.3945 6.13577C24.5772 6.60556 24.7942 7.31152 24.8535 8.61165C24.9176 10.0177 24.9311 10.4393 24.9311 13.9996C24.9311 17.5599 24.9177 17.9814 24.8535 19.3874C24.7942 20.6876 24.5772 21.3935 24.3945 21.8633C24.1525 22.486 23.8639 22.93 23.3973 23.3965C22.9307 23.863 22.4866 24.1522 21.8641 24.3937C21.3943 24.5764 20.6884 24.7934 19.3882 24.8527C17.9823 24.9168 17.5606 24.9303 14.0003 24.9303C10.44 24.9303 10.0185 24.917 8.61243 24.8527C7.3123 24.7934 6.60634 24.5764 6.13655 24.3937C5.5139 24.1516 5.06992 23.863 4.60333 23.3965C4.13685 22.93 3.84766 22.4859 3.60616 21.8633C3.42332 21.3935 3.20645 20.6876 3.14714 19.3874C3.08303 17.9815 3.06959 17.5598 3.06959 13.9996C3.06959 10.4394 3.08292 10.0178 3.14714 8.61165C3.20645 7.31152 3.42342 6.60556 3.60616 6.13577C3.8482 5.51312 4.13675 5.06915 4.60333 4.60256C5.06992 4.13608 5.514 3.84689 6.13655 3.60538C6.60634 3.42265 7.3123 3.20567 8.61243 3.14636C10.0184 3.08279 10.4401 3.06881 14.0003 3.06881ZM14.0003 0.666748C10.3791 0.666748 9.92493 0.682216 8.50288 0.74686C7.08348 0.811503 6.11457 1.03712 5.26652 1.36674C4.38956 1.70766 3.64626 2.16358 2.90499 2.90475C2.16383 3.64602 1.70748 4.38932 1.36698 5.26628C1.03725 6.11443 0.811748 7.08377 0.747104 8.50263C0.68246 9.9248 0.666992 10.379 0.666992 14C0.666992 17.621 0.68246 18.0754 0.747104 19.4974C0.811748 20.9168 1.03736 21.8857 1.36698 22.7338C1.70791 23.6107 2.16383 24.354 2.90499 25.0953C3.64626 25.8366 4.3901 26.2924 5.26652 26.6333C6.11468 26.963 7.08402 27.1886 8.50288 27.2532C9.92493 27.3178 10.3791 27.3333 14.0003 27.3333C17.6214 27.3333 18.0756 27.3178 19.4977 27.2532C20.9171 27.1886 21.886 26.9629 22.734 26.6333C23.611 26.2923 24.3543 25.8365 25.0956 25.0953C25.8368 24.354 26.2926 23.6102 26.6336 22.7338C26.9633 21.8857 27.1888 20.9163 27.2534 19.4974C27.3181 18.0754 27.3336 17.6212 27.3336 14C27.3336 10.3789 27.3181 9.92469 27.2534 8.50263C27.1888 7.08324 26.9632 6.11433 26.6336 5.26628C26.2925 4.38932 25.8367 3.64602 25.0956 2.90475C24.3543 2.16358 23.6104 1.70766 22.734 1.36674C21.886 1.03701 20.9165 0.811503 19.4977 0.74686C18.0757 0.682216 17.6214 0.666748 14.0003 0.666748ZM14.0003 7.15332C10.2188 7.15332 7.15357 10.2186 7.15357 14C7.15357 17.7815 10.2188 20.8468 14.0003 20.8468C17.7817 20.8468 20.8471 17.7815 20.8471 14C20.8471 10.2186 17.7817 7.15332 14.0003 7.15332ZM14.0003 18.4448C11.5458 18.4448 9.55563 16.4552 9.55563 14.0001C9.55563 11.5451 11.5458 9.55549 14.0003 9.55549C16.4547 9.55549 18.4449 11.5451 18.4449 14.0001C18.4449 16.4552 16.4547 18.4448 14.0003 18.4448ZM21.1175 5.28292C20.2336 5.28292 19.5175 5.99901 19.5175 6.88291C19.5175 7.7668 20.2336 8.483 21.1175 8.483C22.0014 8.483 22.7176 7.7668 22.7176 6.88291C22.7176 5.99901 22.0015 5.28292 21.1175 5.28292Z" fill="white"/>
</mask>
<g mask="url(#mask0_4476_12546)">
<rect x="-6.83496" y="-6.83521" width="41.6025" height="41.6025" fill="#5F5F67"/>
</g>
</svg>
