<svg width="165" height="28" viewBox="0 0 165 28" fill="none" xmlns="http://www.w3.org/2000/svg">
<g clip-path="url(#clip0_5081_11769)">
<path d="M13.2016 5.07497V0.552612H9.85181C6.19703 0.552612 3.03984 3.47521 3.03984 7.30249V21.4776C3.03984 21.4776 3.15326 25.2502 0.769531 25.2502V27.5H13.2276V22.9999H7.58149V9.08045C7.58149 9.08045 7.58149 5.31696 11.7288 5.0527C12.1226 5.02738 12.7536 5.07497 13.2016 5.07497Z" fill="#FF488F"/>
<path d="M15.4973 22.9776V27.5H18.8471C22.5018 27.5 25.6585 24.5774 25.6585 20.7501V6.575C25.6585 6.575 25.5451 2.8024 27.9288 2.8024V0.552612H15.4707V5.0527H21.1169V18.9726C21.1169 18.9726 21.1169 22.7361 16.9696 23.0004C16.5757 23.0257 15.9448 22.9781 15.4968 22.9781L15.4973 22.9776Z" fill="#FF488F"/>
<path d="M37.0547 27.4808V0.5H42.8515V22.4243H54.3625V27.4808H37.0547Z" fill="black"/>
<path d="M56.6309 17.2058C56.6309 11.6639 60.5498 6.97241 67.0404 6.97241C73.531 6.97241 77.4903 11.6639 77.4903 17.2058C77.4903 22.7478 73.5714 27.4807 67.0404 27.4807C60.5094 27.4807 56.6309 22.7888 56.6309 17.2058ZM72.1021 17.2058C72.1021 14.1718 70.265 11.5434 67.0404 11.5434C63.8158 11.5434 62.019 14.1723 62.019 17.2058C62.019 20.2393 63.8152 22.9098 67.0404 22.9098C70.2655 22.9098 72.1021 20.2803 72.1021 17.2058Z" fill="black"/>
<path d="M90.2077 6.97241C94.2492 6.97241 96.6983 8.71139 98.0046 10.5319L94.6165 13.6469C93.6775 12.3114 92.2486 11.5434 90.4529 11.5434C87.3095 11.5434 85.1056 13.8078 85.1056 17.2058C85.1056 20.6038 87.3095 22.9098 90.4529 22.9098C92.2486 22.9098 93.6775 22.1008 94.6165 20.8058L98.0046 23.9208C96.6983 25.7412 94.2492 27.4807 90.2077 27.4807C84.1258 27.4807 79.7578 23.2328 79.7578 17.2058C79.7578 11.1789 84.1258 6.97241 90.2077 6.97241Z" fill="black"/>
<path d="M100.27 17.2058C100.27 11.6639 104.188 6.97241 110.679 6.97241C117.17 6.97241 121.129 11.6639 121.129 17.2058C121.129 22.7478 117.21 27.4807 110.679 27.4807C104.148 27.4807 100.27 22.7888 100.27 17.2058ZM115.741 17.2058C115.741 14.1718 113.904 11.5434 110.679 11.5434C107.454 11.5434 105.658 14.1723 105.658 17.2058C105.658 20.2393 107.454 22.9098 110.679 22.9098C113.904 22.9098 115.741 20.2803 115.741 17.2058Z" fill="black"/>
<path d="M133.846 6.97241C137.888 6.97241 140.337 8.71139 141.643 10.5319L138.255 13.6469C137.316 12.3114 135.887 11.5434 134.092 11.5434C130.948 11.5434 128.744 13.8078 128.744 17.2058C128.744 20.6038 130.948 22.9098 134.092 22.9098C135.887 22.9098 137.316 22.1008 138.255 20.8058L141.643 23.9208C140.337 25.7412 137.888 27.4807 133.846 27.4807C127.764 27.4807 123.396 23.2328 123.396 17.2058C123.396 11.1789 127.764 6.97241 133.846 6.97241Z" fill="black"/>
<path d="M143.912 17.2058C143.912 11.6639 147.83 6.97241 154.321 6.97241C160.812 6.97241 164.771 11.6639 164.771 17.2058C164.771 22.7478 160.852 27.4807 154.321 27.4807C147.79 27.4807 143.912 22.7888 143.912 17.2058ZM159.383 17.2058C159.383 14.1718 157.546 11.5434 154.321 11.5434C151.096 11.5434 149.3 14.1723 149.3 17.2058C149.3 20.2393 151.096 22.9098 154.321 22.9098C157.546 22.9098 159.383 20.2803 159.383 17.2058Z" fill="black"/>
</g>
<defs>
<clipPath id="clip0_5081_11769">
<rect width="164" height="27" fill="white" transform="translate(0.769531 0.5)"/>
</clipPath>
</defs>
</svg>
