<svg width="16" height="16" viewBox="0 0 16 16" fill="none" xmlns="http://www.w3.org/2000/svg">
<rect width="16" height="16" fill="#FF488F"/>
<path d="M6.87776 3.26574V2H4.13516C3.33401 2 2.69364 3.08446 2.68502 3.54856V11.8727C2.68502 12.5815 2.5336 12.7109 2 12.7109V13.265H7.27325V11.9993L6.87776 11.9993H4.40121V8.71044V4.83903C4.40121 3.03238 6.08677 3.26574 6.87776 3.26574Z" fill="white"/>
<path d="M9.15255 11.9999L9.15255 13.2656L11.7705 13.2656C12.5352 13.2656 13.1465 12.1812 13.1547 11.7171L13.1547 3.39289C13.1547 2.68408 13.2992 2.55473 13.8086 2.55473L13.8086 2.00058L8.77503 2.00058L8.77503 3.26632L9.15255 3.26632L11.5165 3.26632L11.5165 6.55518L11.5165 10.4266C11.5165 12.2332 9.90758 11.9999 9.15255 11.9999Z" fill="white"/>
</svg>
