<svg width="20" height="20" viewBox="0 0 20 20" fill="none" xmlns="http://www.w3.org/2000/svg">
<mask id="mask0_2522_18719" style="mask-type:alpha" maskUnits="userSpaceOnUse" x="0" y="0" width="20" height="20">
<rect width="20" height="20" fill="#D9D9D9"/>
</mask>
<g mask="url(#mask0_2522_18719)">
<path d="M5.00065 2.5H13.334V13.3333L7.50065 19.1667L6.45898 18.125C6.36176 18.0278 6.2819 17.8958 6.2194 17.7292C6.1569 17.5625 6.12565 17.4028 6.12565 17.25V16.9583L7.04232 13.3333H2.50065C2.05621 13.3333 1.66732 13.1667 1.33398 12.8333C1.00065 12.5 0.833984 12.1111 0.833984 11.6667V10C0.833984 9.90278 0.844401 9.79861 0.865234 9.6875C0.886068 9.57639 0.917318 9.47222 0.958984 9.375L3.45898 3.5C3.58398 3.22222 3.79232 2.98611 4.08398 2.79167C4.37565 2.59722 4.68121 2.5 5.00065 2.5ZM15.0007 13.3333V2.5H18.334V13.3333H15.0007Z" fill="#151516"/>
</g>
</svg>
