<svg width="144" height="144" viewBox="0 0 144 144" fill="none" xmlns="http://www.w3.org/2000/svg">
<circle cx="72" cy="72" r="72" fill="#FFDFEC"/>
<path d="M30.334 47.9263C30.334 42.8192 34.4862 38.667 39.5932 38.667H81.2599C86.367 38.667 90.5192 42.8192 90.5192 47.9263V52.5559H97.8542C100.314 52.5559 102.672 53.5252 104.408 55.2613L110.962 61.8151C112.698 63.5513 113.667 65.9095 113.667 68.369V89.5929C113.667 94.7 109.515 98.8522 104.408 98.8522H103.931C102.426 104.191 97.507 108.111 91.6766 108.111C85.8461 108.111 80.9416 104.191 79.4225 98.8522H64.5788C63.0742 104.191 58.1552 108.111 52.3247 108.111C46.4943 108.111 41.5898 104.191 40.0707 98.8522H39.5932C34.4862 98.8522 30.334 94.7 30.334 89.5929V47.9263ZM104.408 75.704V68.369L97.8542 61.8151H90.5192V75.704H104.408ZM58.1118 95.38C58.1118 92.1826 55.5221 89.5929 52.3247 89.5929C49.1274 89.5929 46.5377 92.1826 46.5377 95.38C46.5377 98.5773 49.1274 101.167 52.3247 101.167C55.5221 101.167 58.1118 98.5773 58.1118 95.38ZM91.6766 101.167C94.8739 101.167 97.4636 98.5773 97.4636 95.38C97.4636 92.1826 94.8739 89.5929 91.6766 89.5929C88.4792 89.5929 85.8895 92.1826 85.8895 95.38C85.8895 98.5773 88.4792 101.167 91.6766 101.167Z" fill="#FF80B1"/>
</svg>
