<svg width="21" height="21" viewBox="0 0 21 21" fill="none" xmlns="http://www.w3.org/2000/svg">
<path d="M5.60714 0C6.20089 0 6.67857 0.468125 6.67857 1.05V2.8H13.8214V1.05C13.8214 0.468125 14.2991 0 14.8929 0C15.4866 0 15.9643 0.468125 15.9643 1.05V2.8H17.3929C18.9688 2.8 20.25 4.05562 20.25 5.6V18.2C20.25 19.7444 18.9688 21 17.3929 21H3.10714C1.53125 21 0.25 19.7444 0.25 18.2V5.6C0.25 4.05562 1.53125 2.8 3.10714 2.8H4.53571V1.05C4.53571 0.468125 5.01339 0 5.60714 0ZM5.60714 4.9H3.10714C2.71429 4.9 2.39286 5.215 2.39286 5.6V7.7H18.1071V5.6C18.1071 5.215 17.7857 4.9 17.3929 4.9H5.60714ZM2.39286 9.8V18.2C2.39286 18.585 2.71429 18.9 3.10714 18.9H17.3929C17.7857 18.9 18.1071 18.585 18.1071 18.2V9.8H2.39286Z" fill="#5F5F67"/>
</svg>
