<svg width="144" height="144" viewBox="0 0 144 144" fill="none" xmlns="http://www.w3.org/2000/svg">
<circle cx="72" cy="72" r="72" fill="#FFDFEC"/>
<path d="M75.0631 54.1384C76.1905 53.2379 76.9013 51.844 76.9013 50.2897C76.9013 47.5635 74.7077 45.3555 71.9994 45.3555C69.291 45.3555 67.0974 47.5635 67.0974 50.2897C67.0974 51.844 67.8204 53.2379 68.9356 54.1384L60.5533 67.4114C59.3278 69.3481 56.7175 69.8292 54.8915 68.4476L47.5998 62.9583C48.1513 62.1688 48.4699 61.1943 48.4699 60.1581C48.4699 57.432 46.2763 55.2239 43.568 55.2239C40.8596 55.2239 38.666 57.432 38.666 60.1581C38.666 62.8472 40.8106 65.043 43.4699 65.0923L47.465 91.9221C48.041 95.7831 51.3376 98.6449 55.2224 98.6449H88.7763C92.6611 98.6449 95.9577 95.7831 96.5337 91.9221L100.529 65.0923C103.188 65.043 105.333 62.8472 105.333 60.1581C105.333 57.432 103.139 55.2239 100.431 55.2239C97.7224 55.2239 95.5288 57.432 95.5288 60.1581C95.5288 61.1943 95.8474 62.1688 96.3989 62.9583L89.1195 68.4599C87.2935 69.8415 84.6832 69.3604 83.4577 67.4237L75.0631 54.1384Z" fill="#FF80B1"/>
</svg>
