<svg width="144" height="144" viewBox="0 0 144 144" fill="none" xmlns="http://www.w3.org/2000/svg">
<circle cx="72" cy="72" r="72" fill="#FFDFEC"/>
<path d="M47.0007 101.167L37.4173 110.75C36.0979 112.069 34.5868 112.365 32.884 111.638C31.1812 110.91 30.3312 109.607 30.334 107.729V42.8333C30.334 40.5417 31.1507 38.5806 32.784 36.95C34.4173 35.3194 36.3784 34.5028 38.6673 34.5H105.334C107.626 34.5 109.588 35.3167 111.221 36.95C112.855 38.5833 113.67 40.5444 113.667 42.8333V92.8333C113.667 95.125 112.852 97.0875 111.221 98.7208C109.591 100.354 107.628 101.169 105.334 101.167H47.0007ZM72.0007 88.6667C73.1812 88.6667 74.1715 88.2667 74.9715 87.4667C75.7715 86.6667 76.1701 85.6778 76.1673 84.5C76.1646 83.3222 75.7645 82.3333 74.9673 81.5333C74.1701 80.7333 73.1812 80.3333 72.0007 80.3333C70.8201 80.3333 69.8312 80.7333 69.034 81.5333C68.2368 82.3333 67.8368 83.3222 67.834 84.5C67.8312 85.6778 68.2312 86.6681 69.034 87.4708C69.8368 88.2736 70.8257 88.6722 72.0007 88.6667ZM72.0007 72C73.1812 72 74.1715 71.6 74.9715 70.8C75.7715 70 76.1701 69.0111 76.1673 67.8333V51.1667C76.1673 49.9861 75.7673 48.9972 74.9673 48.2C74.1673 47.4028 73.1784 47.0028 72.0007 47C70.8229 46.9972 69.834 47.3972 69.034 48.2C68.234 49.0028 67.834 49.9917 67.834 51.1667V67.8333C67.834 69.0139 68.234 70.0042 69.034 70.8042C69.834 71.6042 70.8229 72.0028 72.0007 72Z" fill="#FF80B1"/>
</svg>
