<svg width="100" height="100" viewBox="0 0 100 100" fill="none" xmlns="http://www.w3.org/2000/svg">
<rect width="100" height="100" rx="50" fill="#FFF1F6"/>
<mask id="mask0_3531_45042" style="mask-type:alpha" maskUnits="userSpaceOnUse" x="30" y="30" width="40" height="40">
<rect x="30" y="30" width="40" height="40" fill="#D9D9D9"/>
</mask>
<g mask="url(#mask0_3531_45042)">
<path d="M49.9998 52.4997L59.9998 45.833L49.9998 39.1663V52.4997ZM39.4998 66.458C38.5831 66.5969 37.7567 66.3816 37.0206 65.8122C36.2845 65.2427 35.8609 64.4997 35.7498 63.583L33.5414 45.3747C33.4303 44.458 33.6526 43.6386 34.2081 42.9163C34.7637 42.1941 35.4998 41.7775 36.4164 41.6663L38.3331 41.4163V54.9997C38.3331 56.833 38.9859 58.4025 40.2915 59.708C41.597 61.0136 43.1664 61.6663 44.9998 61.6663H60.4998C60.3331 62.333 59.9998 62.9094 59.4998 63.3955C58.9998 63.8816 58.3887 64.1663 57.6665 64.2497L39.4998 66.458ZM44.9998 58.333C44.0831 58.333 43.2984 58.0066 42.6456 57.3538C41.9928 56.7011 41.6665 55.9163 41.6665 54.9997V36.6663C41.6665 35.7497 41.9928 34.965 42.6456 34.3122C43.2984 33.6594 44.0831 33.333 44.9998 33.333H63.3331C64.2498 33.333 65.0345 33.6594 65.6873 34.3122C66.3401 34.965 66.6665 35.7497 66.6665 36.6663V54.9997C66.6665 55.9163 66.3401 56.7011 65.6873 57.3538C65.0345 58.0066 64.2498 58.333 63.3331 58.333H44.9998Z" fill="#FFB4D2"/>
</g>
</svg>
