<svg width="24" height="24" viewBox="0 0 24 24" fill="none" xmlns="http://www.w3.org/2000/svg">
<path d="M21.3085 8.13331C21.3812 9.42472 21.3694 10.7068 21.3694 12.0005C21.3694 13.2943 21.3835 14.5763 21.3085 15.8677C21.2359 17.3677 20.896 18.6966 19.7968 19.7958C18.6999 20.8927 17.3687 21.2349 15.8687 21.3075C14.5773 21.3802 13.2952 21.3685 12.0015 21.3685C10.7101 21.3685 9.42804 21.3802 8.13429 21.3075C6.63429 21.2349 5.30538 20.895 4.20617 19.7958C3.10929 18.6989 2.7671 17.3677 2.69445 15.8677C2.62179 14.5763 2.63351 13.2919 2.63351 12.0005C2.63351 10.7091 2.62179 9.42706 2.69445 8.13331C2.7671 6.63331 3.10695 5.30441 4.20617 4.20519C5.30304 3.10831 6.63429 2.76613 8.13429 2.69347C9.4257 2.62081 10.7077 2.63253 12.0015 2.63253C13.2929 2.63253 14.5749 2.62081 15.8687 2.69347C17.3687 2.76613 18.6976 3.10597 19.7968 4.20519C20.8937 5.30206 21.2359 6.63331 21.3085 8.13331Z" fill="#151516"/>
<path d="M7.19238 12.0007C7.19238 9.34053 9.33926 7.19365 11.9994 7.19365C14.6596 7.19365 16.8064 9.34053 16.8064 12.0007C16.8064 14.6608 14.6596 16.8077 11.9994 16.8077C9.33926 16.8077 7.19238 14.6608 7.19238 12.0007Z" fill="white"/>
<path d="M15.8807 6.99912C15.8807 6.37803 16.3822 5.87646 17.0033 5.87646C17.1508 5.87628 17.2969 5.90519 17.4332 5.96155C17.5695 6.0179 17.6933 6.10059 17.7976 6.20487C17.9019 6.30916 17.9845 6.43299 18.0409 6.56928C18.0972 6.70557 18.1262 6.85164 18.126 6.99912C18.126 7.62256 17.6244 8.12178 17.0033 8.12178C16.3822 8.12178 15.8807 7.62022 15.8807 6.99912Z" fill="white"/>
</svg>
