<svg width="24" height="24" viewBox="0 0 24 24" fill="none" xmlns="http://www.w3.org/2000/svg">
<path d="M12.0016 2.63308C13.2929 2.63308 14.5751 2.62099 15.8688 2.69363C17.3688 2.76628 18.6983 3.10613 19.7975 4.20535C20.8943 5.30221 21.2366 6.6341 21.3092 8.13406C21.3818 9.42531 21.3698 10.7077 21.3698 12.0012C21.3698 13.2948 21.3842 14.5772 21.3092 15.8684C21.2365 17.3682 20.8965 18.6971 19.7975 19.7962C18.7006 20.893 17.3688 21.2352 15.8688 21.3079C14.5775 21.3805 13.2952 21.3684 12.0016 21.3684C10.7103 21.3684 9.42806 21.3805 8.1344 21.3079C6.63455 21.2352 5.3058 20.8953 4.20667 19.7962C3.1099 18.6994 2.76765 17.3682 2.69495 15.8684C2.6223 14.5772 2.63342 13.2925 2.63343 12.0012C2.63343 10.71 2.62232 9.42766 2.69495 8.13406C2.7676 6.63406 3.10745 5.30457 4.20667 4.20535C5.30345 3.10864 6.63457 2.76631 8.1344 2.69363C9.42571 2.62098 10.7079 2.63308 12.0016 2.63308ZM11.9996 7.19363C9.33963 7.19363 7.19325 9.34033 7.193 12.0003C7.193 14.6604 9.33948 16.8079 11.9996 16.8079C14.6598 16.8078 16.8063 14.6604 16.8063 12.0003C16.806 9.34035 14.6596 7.19367 11.9996 7.19363ZM17.0035 5.87625C16.3824 5.87625 15.8805 6.3782 15.8805 6.99929C15.8806 7.62033 16.3825 8.12136 17.0035 8.12136C17.6246 8.12132 18.1265 7.62265 18.1266 6.99929C18.1268 6.85185 18.097 6.70587 18.0407 6.5696C17.9843 6.43336 17.9017 6.30961 17.7975 6.20535C17.6932 6.10106 17.5695 6.01756 17.4332 5.96121C17.297 5.90492 17.1509 5.87607 17.0035 5.87625Z" fill="#FF488F"/>
</svg>
