<svg width="40" height="30" viewBox="0 0 40 30" fill="none" xmlns="http://www.w3.org/2000/svg">
<g clip-path="url(#clip0_1505_57485)">
<g fill="#EF4351">
<path d="M27.6236 8.15636C27.6236 7.30474 28.3165 6.6169 29.1794 6.60462H39.9999V0.5H27.6236C24.2048 0.5 21.4375 3.235 21.4375 6.60462V11.178V12.8321C22.7112 11.6161 24.8562 9.94557 27.6277 9.18813V8.15636H27.6236Z" fill="#EF4351"/></g>
<g fill="#EF4351">
<path d="M10.8495 20.6358C14.625 19.9234 17.1227 17.9213 18.5665 16.3491V12.7297C18.5665 11.8699 17.8612 11.1739 16.9899 11.1739H6.18608V8.15227C6.18608 7.30065 6.87895 6.61281 7.74194 6.60052H18.5624V0.5H6.18608C2.7715 0.5 0 3.235 0 6.60462V11.178V18.1547C1.09117 18.9694 5.24012 21.6922 10.8495 20.6358Z" fill="#EF4351"/></g>
<g fill="#3182F7">
<path d="M22.5766 29.8119H37.9899C38.8612 29.8119 39.5665 29.1158 39.5665 28.256V13.0457C39.5665 12.1859 38.8612 11.4898 37.9899 11.4898H27.1902V9.5C24.4187 10.2574 22.2779 11.9279 21 13.1439V28.2519C21 29.1117 21.7053 29.8078 22.5766 29.8078V29.8119Z" fill="#3182F7"/></g>
<g fill="#3182F7">
<path d="M1.5766 29.5H16.9899C17.8612 29.5 18.5665 28.804 18.5665 27.9442V16.3491C17.1227 17.9213 14.625 19.9235 10.8495 20.6359C5.24012 21.6922 1.09117 18.9695 0 18.1547V27.9401C0 28.7999 0.705321 29.496 1.5766 29.496V29.5Z" fill="#3182F7"/></g>
</g>
<defs>
<clipPath id="clip0_1505_57485">
<rect width="40" height="29" fill="white" transform="translate(0 0.5)"/>
</clipPath>
</defs>
</svg>
