<svg width="32" height="32" viewBox="0 0 32 32" fill="none" xmlns="http://www.w3.org/2000/svg">
<path d="M16 29.3337C14.1777 29.3337 12.4555 28.9837 10.8333 28.2837C9.21107 27.5837 7.7944 26.6281 6.58329 25.417C5.37218 24.2059 4.41663 22.7892 3.71663 21.167C3.01663 19.5448 2.66663 17.8225 2.66663 16.0003C2.66663 14.1559 3.01663 12.4281 3.71663 10.817C4.41663 9.20588 5.37218 7.79477 6.58329 6.58366C7.7944 5.37255 9.21107 4.41699 10.8333 3.71699C12.4555 3.01699 14.1777 2.66699 16 2.66699C17.8444 2.66699 19.5722 3.01699 21.1833 3.71699C22.7944 4.41699 24.2055 5.37255 25.4166 6.58366C26.6277 7.79477 27.5833 9.20588 28.2833 10.817C28.9833 12.4281 29.3333 14.1559 29.3333 16.0003C29.3333 17.8225 28.9833 19.5448 28.2833 21.167C27.5833 22.7892 26.6277 24.2059 25.4166 25.417C24.2055 26.6281 22.7944 27.5837 21.1833 28.2837C19.5722 28.9837 17.8444 29.3337 16 29.3337ZM16 26.6003C16.5777 25.8003 17.0777 24.967 17.5 24.1003C17.9222 23.2337 18.2666 22.3114 18.5333 21.3337H13.4666C13.7333 22.3114 14.0777 23.2337 14.5 24.1003C14.9222 24.967 15.4222 25.8003 16 26.6003ZM12.5333 26.067C12.1333 25.3337 11.7833 24.5725 11.4833 23.7837C11.1833 22.9948 10.9333 22.1781 10.7333 21.3337H6.79996C7.4444 22.4448 8.24996 23.4114 9.21663 24.2337C10.1833 25.0559 11.2888 25.667 12.5333 26.067ZM19.4666 26.067C20.7111 25.667 21.8166 25.0559 22.7833 24.2337C23.75 23.4114 24.5555 22.4448 25.2 21.3337H21.2666C21.0666 22.1781 20.8166 22.9948 20.5166 23.7837C20.2166 24.5725 19.8666 25.3337 19.4666 26.067ZM5.66663 18.667H10.2C10.1333 18.2225 10.0833 17.7837 10.05 17.3503C10.0166 16.917 9.99996 16.467 9.99996 16.0003C9.99996 15.5337 10.0166 15.0837 10.05 14.6503C10.0833 14.217 10.1333 13.7781 10.2 13.3337H5.66663C5.55552 13.7781 5.47218 14.217 5.41663 14.6503C5.36107 15.0837 5.33329 15.5337 5.33329 16.0003C5.33329 16.467 5.36107 16.917 5.41663 17.3503C5.47218 17.7837 5.55552 18.2225 5.66663 18.667ZM12.8666 18.667H19.1333C19.2 18.2225 19.25 17.7837 19.2833 17.3503C19.3166 16.917 19.3333 16.467 19.3333 16.0003C19.3333 15.5337 19.3166 15.0837 19.2833 14.6503C19.25 14.217 19.2 13.7781 19.1333 13.3337H12.8666C12.8 13.7781 12.75 14.217 12.7166 14.6503C12.6833 15.0837 12.6666 15.5337 12.6666 16.0003C12.6666 16.467 12.6833 16.917 12.7166 17.3503C12.75 17.7837 12.8 18.2225 12.8666 18.667ZM21.8 18.667H26.3333C26.4444 18.2225 26.5277 17.7837 26.5833 17.3503C26.6388 16.917 26.6666 16.467 26.6666 16.0003C26.6666 15.5337 26.6388 15.0837 26.5833 14.6503C26.5277 14.217 26.4444 13.7781 26.3333 13.3337H21.8C21.8666 13.7781 21.9166 14.217 21.95 14.6503C21.9833 15.0837 22 15.5337 22 16.0003C22 16.467 21.9833 16.917 21.95 17.3503C21.9166 17.7837 21.8666 18.2225 21.8 18.667ZM21.2666 10.667H25.2C24.5555 9.55588 23.75 8.58921 22.7833 7.76699C21.8166 6.94477 20.7111 6.33366 19.4666 5.93366C19.8666 6.66699 20.2166 7.4281 20.5166 8.21699C20.8166 9.00588 21.0666 9.82255 21.2666 10.667ZM13.4666 10.667H18.5333C18.2666 9.68921 17.9222 8.76699 17.5 7.90033C17.0777 7.03366 16.5777 6.20033 16 5.40033C15.4222 6.20033 14.9222 7.03366 14.5 7.90033C14.0777 8.76699 13.7333 9.68921 13.4666 10.667ZM6.79996 10.667H10.7333C10.9333 9.82255 11.1833 9.00588 11.4833 8.21699C11.7833 7.4281 12.1333 6.66699 12.5333 5.93366C11.2888 6.33366 10.1833 6.94477 9.21663 7.76699C8.24996 8.58921 7.4444 9.55588 6.79996 10.667Z" fill="#3A3C40"/>
</svg>
