<svg width="20" height="20" viewBox="0 0 20 20" fill="none" xmlns="http://www.w3.org/2000/svg">
<path d="M19.9992 8.58624C19.9992 4.11061 15.5124 0.46936 9.99706 0.46936C4.48175 0.46936 -0.00512695 4.11061 -0.00512695 8.58624C-0.00512695 12.5987 3.55362 15.9587 8.36019 16.5944C8.6855 16.6647 9.12894 16.809 9.24144 17.0875C9.34269 17.3406 9.30706 17.7362 9.27425 17.9922C9.27425 17.9922 9.15706 18.6981 9.13175 18.8481C9.08769 19.1012 8.93112 19.8372 9.998 19.3872C11.0658 18.9372 15.758 15.9953 17.8561 13.5803C19.3055 11.9903 20.0002 10.3778 20.0002 8.58624H19.9992Z" fill="white"/>
<path d="M16.6743 11.186H13.8646C13.7587 11.186 13.6733 11.1007 13.6733 10.9947V10.9919V6.63441V6.62973C13.6733 6.52379 13.7587 6.43848 13.8646 6.43848H16.6743C16.7793 6.43848 16.8655 6.52473 16.8655 6.62973V7.33941C16.8655 7.44535 16.7802 7.53066 16.6743 7.53066H14.7646V8.26754H16.6743C16.7793 8.26754 16.8655 8.35379 16.8655 8.45879V9.16848C16.8655 9.27441 16.7802 9.35973 16.6743 9.35973H14.7646V10.0966H16.6743C16.7793 10.0966 16.8655 10.1829 16.8655 10.2879V10.9975C16.8655 11.1035 16.7802 11.1888 16.6743 11.1888V11.186Z" fill="#06C755"/>
<path d="M6.27702 11.1709C6.38202 11.1709 6.46827 11.0856 6.46827 10.9797V10.27C6.46827 10.165 6.38202 10.0787 6.27702 10.0787H4.36733V6.61374C4.36733 6.50874 4.28108 6.42249 4.17608 6.42249H3.4664C3.36046 6.42249 3.27515 6.5078 3.27515 6.61374V10.9759V10.9797C3.27515 11.0856 3.36046 11.1709 3.4664 11.1709H6.27608H6.27702Z" fill="#06C755"/>
<path d="M7.96836 6.4234H7.25961C7.15399 6.4234 7.06836 6.50903 7.06836 6.61465V10.9797C7.06836 11.0853 7.15399 11.1709 7.25961 11.1709H7.96836C8.07398 11.1709 8.15961 11.0853 8.15961 10.9797V6.61465C8.15961 6.50903 8.07398 6.4234 7.96836 6.4234Z" fill="#06C755"/>
<path d="M12.7974 6.4234H12.0877C11.9817 6.4234 11.8964 6.50871 11.8964 6.61465V9.20684L9.89954 6.50965C9.89485 6.50309 9.88923 6.49653 9.88454 6.48996C9.88454 6.48996 9.88454 6.48996 9.8836 6.48903C9.87985 6.48528 9.8761 6.48059 9.87235 6.47684C9.87142 6.4759 9.86954 6.47496 9.8686 6.47403C9.86485 6.47121 9.86204 6.4684 9.85829 6.46559C9.85642 6.46465 9.85454 6.46278 9.85267 6.46184C9.84985 6.45903 9.8461 6.45715 9.84235 6.45528C9.84048 6.45434 9.8386 6.45246 9.83673 6.45153C9.83298 6.44965 9.83017 6.44778 9.82642 6.4459C9.82454 6.44496 9.82267 6.44403 9.82079 6.44309C9.81704 6.44121 9.81329 6.43934 9.80954 6.4384C9.80767 6.4384 9.80579 6.43653 9.80298 6.43653C9.79923 6.43559 9.79548 6.43371 9.79173 6.43278C9.78985 6.43278 9.78704 6.43184 9.78517 6.4309C9.78142 6.4309 9.77767 6.42903 9.77392 6.42809C9.7711 6.42809 9.76829 6.42809 9.76548 6.42715C9.76173 6.42715 9.75892 6.42621 9.75517 6.42621C9.75142 6.42621 9.7486 6.42621 9.74485 6.42621C9.74298 6.42621 9.74017 6.42621 9.73829 6.42621H9.03329C8.92829 6.42621 8.84204 6.51153 8.84204 6.61746V10.9825C8.84204 11.0875 8.92735 11.1737 9.03329 11.1737H9.74298C9.84892 11.1737 9.93423 11.0884 9.93423 10.9825V8.39028L11.9339 11.0912C11.948 11.1109 11.9649 11.1268 11.9836 11.139C11.9836 11.139 11.9855 11.14 11.9855 11.1409C11.9892 11.1437 11.993 11.1456 11.9977 11.1484C11.9995 11.1493 12.0014 11.1503 12.0033 11.1512C12.0061 11.1531 12.0099 11.154 12.0127 11.1559C12.0155 11.1578 12.0192 11.1587 12.022 11.1596C12.0239 11.1596 12.0258 11.1615 12.0277 11.1615C12.0324 11.1634 12.0361 11.1643 12.0408 11.1653C12.0408 11.1653 12.0427 11.1653 12.0436 11.1653C12.0595 11.169 12.0764 11.1718 12.0933 11.1718H12.7983C12.9033 11.1718 12.9895 11.0865 12.9895 10.9806V6.61559C12.9895 6.51059 12.9042 6.42434 12.7983 6.42434L12.7974 6.4234Z" fill="#06C755"/>
</svg>
