<svg xmlns="http://www.w3.org/2000/svg" width="16" height="16" fill="none" viewBox="0 0 16 16"><mask id="a" width="16" height="16" x="0" y="0" maskUnits="userSpaceOnUse" style="mask-type:alpha"><path fill="#D9D9D9" d="M0 0h16v16H0z"/></mask><g mask="url(#a)"><path fill="#5F5F67" d="M4 14.667c-.366 0-.68-.13-.941-.392a1.284 1.284 0 0 1-.392-.942V6.667c0-.367.13-.68.392-.942.26-.261.575-.392.941-.392h.667V4c0-.922.325-1.708.975-2.358A3.213 3.213 0 0 1 8 .667c.923 0 1.709.325 2.359.975.65.65.975 1.436.975 2.358v1.333H12c.367 0 .68.13.942.392.261.261.392.575.392.942v6.666c0 .367-.13.68-.392.942a1.284 1.284 0 0 1-.942.392H4zm4-3.334c.367 0 .68-.13.942-.391.261-.261.392-.575.392-.942s-.13-.68-.392-.942A1.284 1.284 0 0 0 8 8.667c-.366 0-.68.13-.941.391a1.284 1.284 0 0 0-.392.942c0 .367.13.68.392.942.26.26.575.391.941.391zm-2-6h4V4c0-.556-.194-1.028-.583-1.417A1.929 1.929 0 0 0 8 2c-.555 0-1.027.194-1.416.583A1.929 1.929 0 0 0 6 4v1.333z"/></g></svg>