<svg width="32" height="32" viewBox="0 0 32 32" fill="none" xmlns="http://www.w3.org/2000/svg">
<mask id="mask0_4167_30809" style="mask-type:alpha" maskUnits="userSpaceOnUse" x="0" y="0" width="32" height="32">
<rect width="32" height="32" fill="#D9D9D9"/>
</mask>
<g mask="url(#mask0_4167_30809)">
<path d="M5.86491 4C4.09928 4 2.66699 5.71875 2.66699 7.8375C2.66699 7.89375 2.66699 7.94375 2.6722 8H2.66699V24C2.66699 26.2062 4.16178 28 6.00033 28H26.0003C27.8389 28 29.3337 26.2062 29.3337 24V8H29.3285C29.3285 7.94375 29.3337 7.89375 29.3337 7.8375C29.3337 5.71875 27.9014 4 26.1357 4H5.86491ZM26.8337 12.0187V24C26.8337 24.55 26.4587 25 26.0003 25H6.00033C5.54199 25 5.16699 24.55 5.16699 24V12.0187L13.2295 19.3563C14.8649 20.85 17.1305 20.85 18.7712 19.3563L26.8337 12.0187ZM5.16699 7.8375C5.16699 7.375 5.47949 7 5.86491 7H26.1357C26.5212 7 26.8337 7.375 26.8337 7.8375C26.8337 8.1 26.7295 8.35 26.5576 8.50625L17.2607 16.9688C16.516 17.6438 15.4847 17.6438 14.7399 16.9688L5.44303 8.50625C5.27116 8.35 5.16699 8.1 5.16699 7.8375Z" fill="#5F5F67"/>
</g>
</svg>
