<svg width="20" height="20" viewBox="0 0 20 20" fill="none" xmlns="http://www.w3.org/2000/svg">
<mask id="mask0_1697_2029" style="mask-type:alpha" maskUnits="userSpaceOnUse" x="0" y="0" width="20" height="20">
<rect width="20" height="20" fill="#D9D9D9"/>
</mask>
<g mask="url(#mask0_1697_2029)">
<path d="M4.87502 14.2503C5.58335 13.7087 6.37502 13.2816 7.25002 12.9691C8.12502 12.6566 9.04169 12.5003 10 12.5003C10.9584 12.5003 11.875 12.6566 12.75 12.9691C13.625 13.2816 14.4167 13.7087 15.125 14.2503C15.6111 13.6809 15.9896 13.035 16.2604 12.3128C16.5313 11.5906 16.6667 10.8198 16.6667 10.0003C16.6667 8.1531 16.0174 6.58019 14.7188 5.28158C13.4202 3.98296 11.8472 3.33366 10 3.33366C8.1528 3.33366 6.57988 3.98296 5.28127 5.28158C3.98266 6.58019 3.33335 8.1531 3.33335 10.0003C3.33335 10.8198 3.46877 11.5906 3.7396 12.3128C4.01044 13.035 4.38891 13.6809 4.87502 14.2503ZM10 10.8337C9.18058 10.8337 8.4896 10.5524 7.9271 9.98991C7.3646 9.42741 7.08335 8.73644 7.08335 7.91699C7.08335 7.09755 7.3646 6.40658 7.9271 5.84408C8.4896 5.28158 9.18058 5.00033 10 5.00033C10.8195 5.00033 11.5104 5.28158 12.0729 5.84408C12.6354 6.40658 12.9167 7.09755 12.9167 7.91699C12.9167 8.73644 12.6354 9.42741 12.0729 9.98991C11.5104 10.5524 10.8195 10.8337 10 10.8337ZM10 18.3337C8.84724 18.3337 7.76391 18.1149 6.75002 17.6774C5.73613 17.2399 4.85419 16.6462 4.10419 15.8962C3.35419 15.1462 2.76044 14.2642 2.32294 13.2503C1.88544 12.2364 1.66669 11.1531 1.66669 10.0003C1.66669 8.84755 1.88544 7.76421 2.32294 6.75033C2.76044 5.73644 3.35419 4.85449 4.10419 4.10449C4.85419 3.35449 5.73613 2.76074 6.75002 2.32324C7.76391 1.88574 8.84724 1.66699 10 1.66699C11.1528 1.66699 12.2361 1.88574 13.25 2.32324C14.2639 2.76074 15.1459 3.35449 15.8959 4.10449C16.6459 4.85449 17.2396 5.73644 17.6771 6.75033C18.1146 7.76421 18.3334 8.84755 18.3334 10.0003C18.3334 11.1531 18.1146 12.2364 17.6771 13.2503C17.2396 14.2642 16.6459 15.1462 15.8959 15.8962C15.1459 16.6462 14.2639 17.2399 13.25 17.6774C12.2361 18.1149 11.1528 18.3337 10 18.3337Z" fill="#3A3C40"/>
</g>
</svg>
