<svg width="33" height="33" viewBox="0 0 33 33" fill="none" xmlns="http://www.w3.org/2000/svg">
<rect x="0.75" y="0.5" width="32" height="32" rx="16" fill="#FFF1F6"/>
<path d="M11.0994 9.91328C10.7914 9.91328 10.5394 10.1653 10.5394 10.4733V21.6733C10.5394 21.9813 10.7914 22.2333 11.0994 22.2333H22.2994C22.6074 22.2333 22.8594 21.9813 22.8594 21.6733V10.4733C22.8594 10.1653 22.6074 9.91328 22.2994 9.91328H11.0994ZM8.85938 10.4733C8.85938 9.23778 9.86388 8.23328 11.0994 8.23328H22.2994C23.5349 8.23328 24.5394 9.23778 24.5394 10.4733V21.6733C24.5394 22.9088 23.5349 23.9133 22.2994 23.9133H11.0994C9.86388 23.9133 8.85938 22.9088 8.85938 21.6733V10.4733ZM13.3394 11.5933C13.9589 11.5933 14.4594 12.0938 14.4594 12.7133C14.4594 13.3328 13.9589 13.8333 13.3394 13.8333C12.7199 13.8333 12.2194 13.3328 12.2194 12.7133C12.2194 12.0938 12.7199 11.5933 13.3394 11.5933ZM18.0994 14.1133C18.3969 14.1133 18.6734 14.2708 18.8239 14.5263L21.6239 19.2863C21.7779 19.5453 21.7779 19.8673 21.6274 20.1298C21.4769 20.3923 21.2004 20.5533 20.8994 20.5533H12.4994C12.1879 20.5533 11.8974 20.3783 11.7539 20.1018C11.6104 19.8253 11.6314 19.4893 11.8099 19.2338L13.7699 16.4338C13.9274 16.2098 14.1829 16.0768 14.4594 16.0768C14.7359 16.0768 14.9914 16.2098 15.1489 16.4338L15.7509 17.2948L17.3784 14.5298C17.5289 14.2743 17.8054 14.1168 18.1029 14.1168L18.0994 14.1133Z" fill="#FF80B1"/>
</svg>
