<svg width="144" height="144" viewBox="0 0 144 144" fill="none" xmlns="http://www.w3.org/2000/svg">
<circle cx="72" cy="72" r="72" fill="#FFDFEC"/>
<path d="M106.721 113.667H37.2769C35.1936 113.667 33.8047 112.278 33.8047 110.195V68.5279C33.8047 66.4446 35.1936 65.0557 37.2769 65.0557H106.721C108.805 65.0557 110.194 66.4446 110.194 68.5279V110.195C110.194 112.278 108.805 113.667 106.721 113.667ZM40.7491 106.722H103.249V72.0001H40.7491V106.722Z" fill="#FF80B1"/>
<path d="M110.195 72.0003H33.8062C31.7229 72.0003 30.334 70.6114 30.334 68.5281V54.6392C30.334 52.5559 31.7229 51.167 33.8062 51.167H110.195C112.278 51.167 113.667 52.5559 113.667 54.6392V68.5281C113.667 70.6114 112.278 72.0003 110.195 72.0003ZM37.2784 65.0559H106.723V58.1114H37.2784V65.0559Z" fill="#FF80B1"/>
<path d="M71.9996 113.666C69.9162 113.666 68.5273 112.277 68.5273 110.194V54.6386C68.5273 52.5552 69.9162 51.1663 71.9996 51.1663C74.0829 51.1663 75.4718 52.5552 75.4718 54.6386V110.194C75.4718 112.277 74.0829 113.666 71.9996 113.666ZM82.4162 58.1108C80.3329 58.1108 78.944 56.7219 78.944 54.6386C78.944 52.5552 80.3329 51.1663 82.4162 51.1663C86.2357 51.1663 89.3607 48.0413 89.3607 44.2219C89.3607 40.4025 86.2357 37.2775 82.4162 37.2775C78.5968 37.2775 75.4718 40.4025 75.4718 44.2219C75.4718 46.3052 74.0829 47.6941 71.9996 47.6941C69.9162 47.6941 68.5273 46.3052 68.5273 44.2219C68.5273 36.583 74.7773 30.333 82.4162 30.333C90.0551 30.333 96.3051 36.583 96.3051 44.2219C96.3051 51.8608 90.0551 58.1108 82.4162 58.1108Z" fill="#FF80B1"/>
<path d="M61.5842 58.1108C53.9453 58.1108 47.6953 51.8608 47.6953 44.2219C47.6953 36.583 53.9453 30.333 61.5842 30.333C69.2231 30.333 75.4731 36.583 75.4731 44.2219C75.4731 46.3052 74.0842 47.6941 72.0009 47.6941C69.9175 47.6941 68.5286 46.3052 68.5286 44.2219C68.5286 40.4025 65.4036 37.2775 61.5842 37.2775C57.7648 37.2775 54.6398 40.4025 54.6398 44.2219C54.6398 48.0413 57.7648 51.1663 61.5842 51.1663C63.6675 51.1663 65.0564 52.5552 65.0564 54.6386C65.0564 56.7219 63.6675 58.1108 61.5842 58.1108Z" fill="#FF80B1"/>
<path d="M71.9996 65.0556C69.9162 65.0556 68.5273 63.6667 68.5273 61.5833V44.2222C68.5273 42.1389 69.9162 40.75 71.9996 40.75C74.0829 40.75 75.4718 42.1389 75.4718 44.2222V61.5833C75.4718 63.6667 74.0829 65.0556 71.9996 65.0556Z" fill="#FF80B1"/>
</svg>
