<svg width="36" height="36" viewBox="0 0 36 36" fill="none" xmlns="http://www.w3.org/2000/svg">
<path d="M23.6328 21.3825H22.4478L22.0278 20.9775C23.4978 19.2675 24.3828 17.0475 24.3828 14.6325C24.3828 9.24751 20.0178 4.88251 14.6328 4.88251C9.24781 4.88251 4.88281 9.24751 4.88281 14.6325C4.88281 20.0175 9.24781 24.3825 14.6328 24.3825C17.0478 24.3825 19.2678 23.4975 20.9778 22.0275L21.3828 22.4475V23.6325L28.8828 31.1175L31.1178 28.8825L23.6328 21.3825ZM14.6328 21.3825C10.8978 21.3825 7.88281 18.3675 7.88281 14.6325C7.88281 10.8975 10.8978 7.88251 14.6328 7.88251C18.3678 7.88251 21.3828 10.8975 21.3828 14.6325C21.3828 18.3675 18.3678 21.3825 14.6328 21.3825Z" fill="black"/>
</svg>
