<svg width="144" height="144" viewBox="0 0 144 144" fill="none" xmlns="http://www.w3.org/2000/svg">
<circle cx="72" cy="72" r="72" fill="#FFDFEC"/>
<path d="M52.9062 37.672C54.6094 38.8595 55.0156 41.2032 53.8281 42.8907L45.0781 55.3908C44.4375 56.297 43.4375 56.8751 42.3281 56.9689C41.2188 57.0626 40.125 56.6876 39.3438 55.9064L33.0938 49.6564C31.6406 48.1876 31.6406 45.8126 33.0938 44.3439C34.5469 42.8751 36.9375 42.8907 38.4062 44.3439L41.5 47.4376L47.6875 38.5939C48.875 36.8907 51.2188 36.4845 52.9062 37.672ZM52.9062 62.672C54.6094 63.8595 55.0156 66.2033 53.8281 67.8908L45.0781 80.3908C44.4375 81.297 43.4375 81.8751 42.3281 81.9689C41.2188 82.0626 40.125 81.6876 39.3438 80.9064L33.0938 74.6564C31.625 73.1876 31.625 70.8126 33.0938 69.3595C34.5625 67.9064 36.9375 67.8908 38.3906 69.3595L41.4844 72.4532L47.6719 63.6095C48.8594 61.9064 51.2031 61.5001 52.8906 62.6876L52.9062 62.672ZM67 47.0001C67 44.2345 69.2344 42.0001 72 42.0001H107C109.766 42.0001 112 44.2345 112 47.0001C112 49.7658 109.766 52.0001 107 52.0001H72C69.2344 52.0001 67 49.7658 67 47.0001ZM67 72.0001C67 69.2345 69.2344 67.0001 72 67.0001H107C109.766 67.0001 112 69.2345 112 72.0001C112 74.7658 109.766 77.0001 107 77.0001H72C69.2344 77.0001 67 74.7658 67 72.0001ZM57 97.0001C57 94.2345 59.2344 92.0001 62 92.0001H107C109.766 92.0001 112 94.2345 112 97.0001C112 99.7658 109.766 102 107 102H62C59.2344 102 57 99.7658 57 97.0001ZM42 90.7501C45.4531 90.7501 48.25 93.547 48.25 97.0001C48.25 100.453 45.4531 103.25 42 103.25C38.5469 103.25 35.75 100.453 35.75 97.0001C35.75 93.547 38.5469 90.7501 42 90.7501Z" fill="#FF80B1"/>
</svg>
