<svg width="24" height="24" viewBox="0 0 24 24" fill="none" xmlns="http://www.w3.org/2000/svg">
<path d="M21.7504 5.95968C21.0332 6.26905 20.2527 6.49171 19.4488 6.57843C20.2835 6.08257 20.9085 5.29921 21.2066 4.3753C20.4234 4.84121 19.5654 5.16792 18.6707 5.34093C18.2967 4.94115 17.8445 4.62266 17.342 4.40532C16.8396 4.18798 16.2978 4.07644 15.7504 4.07765C13.5355 4.07765 11.7543 5.87296 11.7543 8.07608C11.7543 8.38546 11.7918 8.69483 11.8527 8.99249C8.53633 8.81905 5.57852 7.23468 3.61211 4.8089C3.25381 5.42089 3.06605 6.11771 3.06836 6.82686C3.06836 8.21437 3.77383 9.4378 4.84961 10.1573C4.21564 10.1324 3.59651 9.95811 3.04258 9.64874V9.69796C3.04258 11.6409 4.41602 13.2511 6.24648 13.6214C5.90279 13.7107 5.54924 13.7563 5.19414 13.7573C4.93398 13.7573 4.68789 13.7316 4.43945 13.6964C4.9457 15.2808 6.41992 16.4316 8.17539 16.4691C6.80195 17.5448 5.08164 18.1776 3.21367 18.1776C2.87852 18.1776 2.56914 18.1659 2.24805 18.1284C4.01992 19.2651 6.12227 19.9214 8.38633 19.9214C15.7363 19.9214 19.7582 13.8323 19.7582 8.54718C19.7582 8.37374 19.7582 8.2003 19.7465 8.02687C20.5246 7.45733 21.2066 6.75187 21.7504 5.95968Z" fill="#FF488F"/>
</svg>
